<?xml version="1.0" encoding="UTF-8" standalone="no"?>
<svg
   viewBox="0 0 640 512"
   version="1.1"
   id="svg4"
   sodipodi:docname="flask-vial.svg"
   inkscape:version="1.2.2 (b0a8486541, 2022-12-01)"
   xmlns:inkscape="http://www.inkscape.org/namespaces/inkscape"
   xmlns:sodipodi="http://sodipodi.sourceforge.net/DTD/sodipodi-0.dtd"
   xmlns="http://www.w3.org/2000/svg"
   xmlns:svg="http://www.w3.org/2000/svg">
  <defs
     id="defs8" />
  <sodipodi:namedview
     id="namedview6"
     pagecolor="#505050"
     bordercolor="#eeeeee"
     borderopacity="1"
     inkscape:showpageshadow="0"
     inkscape:pageopacity="0"
     inkscape:pagecheckerboard="0"
     inkscape:deskcolor="#505050"
     showgrid="false"
     inkscape:zoom="1.0283203"
     inkscape:cx="359.32384"
     inkscape:cy="407.94682"
     inkscape:window-width="2560"
     inkscape:window-height="1411"
     inkscape:window-x="-9"
     inkscape:window-y="-9"
     inkscape:window-maximized="1"
     inkscape:current-layer="svg4" />
  <!--!Font
  Awesome Free 6.5.1 by @fontawesome - https://fontawesome.com License -
  https://fontawesome.com/license/free Copyright 2024 Fonticons, Inc.-->
  <g
     id="g294"
     transform="translate(-150.73125,-8.7521369)">
    <rect
       style="fill:none;stroke:none;stroke-width:1.10226;stroke-linecap:round;stroke-dasharray:1.10226, 2.20452;stop-color:#000000"
       id="rect343"
       width="256"
       height="256"
       x="183.24788"
       y="124.11016" />
    <path
       d="m 258.78346,300.3774 c -3.54586,5.78917 -5.42735,12.41053 -5.42735,19.21281 -3.61823,1.26638 -7.52592,1.99004 -11.57834,1.99004 -19.17664,0 -34.73504,-15.55841 -34.73504,-34.73505 V 182.64007 c -6.40428,0 -11.57835,-5.17407 -11.57835,-11.57835 0,-6.40427 5.17407,-11.57834 11.57835,-11.57834 h 23.15669 23.15669 23.1567 c 6.40428,0 11.57835,5.17407 11.57835,11.57834 0,6.40428 -5.17407,11.57835 -11.57835,11.57835 v 88.97237 l -17.72935,28.80114 z M 230.19942,182.64007 v 34.73505 h 23.15669 v -34.73505 z m 92.62678,-23.15669 h 46.3134 11.57834 c 6.40428,0 11.57835,5.17407 11.57835,11.57834 0,6.40428 -5.17407,11.57835 -11.57835,11.57835 v 54.59915 l 42.58661,69.21681 c 2.42422,3.94388 3.72678,8.50285 3.72678,13.17037 0,13.85783 -11.2527,25.11054 -25.11054,25.11054 H 290.04501 c -13.85784,0 -25.11055,-11.25271 -25.11055,-25.11054 0,-4.63134 1.30257,-9.19032 3.72679,-13.17037 l 42.5866,-69.21681 v -54.59915 c -6.40427,0 -11.57834,-5.17407 -11.57834,-11.57835 0,-6.40427 5.17407,-11.57834 11.57834,-11.57834 z m 11.57835,23.15669 v 57.89174 c 0,2.13476 -0.57892,4.23333 -1.70057,6.07863 L 315.047,275.26685 h 61.8718 l -17.65699,-28.65641 c -1.12165,-1.80911 -1.70056,-3.90769 -1.70056,-6.07863 v -57.89174 z"
       id="path2"
       style="stroke-width:0.361823" />
  </g>
  <rect
     style="fill:#008000;stroke:none;stroke-width:1.10226;stroke-linecap:round;stroke-dasharray:1.10226, 2.20452;stop-color:#000000"
     id="rect234"
     width="256"
     height="256"
     x="364.1254"
     y="124.11016"
     inkscape:export-filename="flask-vial-color.png"
     inkscape:export-xdpi="24.29"
     inkscape:export-ydpi="24.29" />
  <path
     d="m 439.66095,300.3774 c -3.54586,5.78917 -5.42735,12.41053 -5.42735,19.21281 -3.61823,1.26638 -7.52592,1.99004 -11.57834,1.99004 -19.17664,0 -34.73504,-15.55841 -34.73504,-34.73505 V 182.64007 c -6.40428,0 -11.57835,-5.17407 -11.57835,-11.57835 0,-6.40427 5.17407,-11.57834 11.57835,-11.57834 h 23.15669 23.15669 23.1567 c 6.40428,0 11.57835,5.17407 11.57835,11.57834 0,6.40428 -5.17407,11.57835 -11.57835,11.57835 v 88.97237 l -17.72935,28.80114 z M 411.07691,182.64007 v 34.73505 h 23.15669 v -34.73505 z m 92.62678,-23.15669 h 46.3134 11.57834 c 6.40428,0 11.57835,5.17407 11.57835,11.57834 0,6.40428 -5.17407,11.57835 -11.57835,11.57835 v 54.59915 l 42.58661,69.21681 c 2.42422,3.94388 3.72678,8.50285 3.72678,13.17037 0,13.85783 -11.2527,25.11054 -25.11054,25.11054 H 470.9225 c -13.85784,0 -25.11055,-11.25271 -25.11055,-25.11054 0,-4.63134 1.30257,-9.19032 3.72679,-13.17037 l 42.5866,-69.21681 v -54.59915 c -6.40427,0 -11.57834,-5.17407 -11.57834,-11.57835 0,-6.40427 5.17407,-11.57834 11.57834,-11.57834 z m 11.57835,23.15669 v 57.89174 c 0,2.13476 -0.57892,4.23333 -1.70057,6.07863 l -17.65698,28.65641 h 61.8718 L 540.1393,246.61044 c -1.12165,-1.80911 -1.70056,-3.90769 -1.70056,-6.07863 v -57.89174 z"
     id="path236"
     style="stroke-width:0.361823;fill:#00ff00" />
</svg>
