<svg width="1em" height="1em" aria-hidden="true" role="img" version="1.1" viewBox="0 0 1024 1024" xmlns="http://www.w3.org/2000/svg">
 <g>
  <path d="m977.33 6.2066h-930.66c-22.381 0-40.463 18.082-40.463 40.463v930.66c0 22.381 18.082 40.463 40.463 40.463h930.66c22.381 0 40.463-18.082 40.463-40.463v-930.66c0-22.381-18.082-40.463-40.463-40.463zm-50.579 920.54h-829.5v-829.5h829.5z" fill="#181818"/>
  <rect x="97.249" y="97.249" width="829.5" height="829.5" fill="#ffb835"/>
  <path d="m270.61 723.3 242.78-203.58c4.9315-4.0464 4.9315-11.507 0-15.553l-242.78-203.46a10.053 10.053 0 0 0-16.565 7.7134v79.283c0 3.0348 1.2645 5.8166 3.667 7.7134l138.84 116.59-138.84 116.59a10.242 10.242 0 0 0-3.667 7.7134v79.283c0 8.5985 9.9894 13.277 16.565 7.7134zm246.45-7.7134c0 5.5637 4.2992 10.116 9.4836 10.116h233.93c5.1844 0 9.4836-4.5521 9.4836-10.116v-60.695c0-5.5637-4.2992-10.116-9.4836-10.116h-233.93c-5.1844 0-9.4836 4.5521-9.4836 10.116z" fill="#181818"/>
 </g>
</svg>
